Format                           : AVI
Format/Info                      : Audio Video Interleave
File size                        : 1.40 GiB
Duration                         : 1h 16mn
Overall bit rate                 : 2 645 Kbps
Writing library                  : VirtualDub build 32842/release

Video
ID                               : 0
Format                           : MPEG-4 Visual
Format profile                   : Advanced Simple@L5
Format settings, BVOP            : 1
Format settings, QPel            : No
Format settings, GMC             : No warppoints
Format settings, Matrix          : Default (H.263)
Muxing mode                      : Packed bitstream
Codec ID                         : XVID
Codec ID/Hint                    : XviD
Duration                         : 1h 16mn
Bit rate                         : 2 188 Kbps
Width                            : 720 pixels
Height                           : 400 pixels
Display aspect ratio             : 16:9
Frame rate                       : 25.000 fps
Color space                      : YUV
Chroma subsampling               : 4:2:0
Bit depth                        : 8 bits
Scan type                        : Progressive
Compression mode                 : Lossy
Bits/(Pixel*Frame)               : 0.304
Stream size                      : 1.16 GiB (83%)
Writing library                  : XviD 64

Audio
ID                               : 1
Format                           : AC-3
Format/Info                      : Audio Coding 3
Mode extension                   : CM (complete main)
Codec ID                         : 2000
Duration                         : 1h 16mn
Bit rate mode                    : Constant
Bit rate                         : 448 Kbps
Channel(s)                       : 6 channels
Channel positions                : Front: L C R, Side: L R, LFE
Sampling rate                    : 48.0 KHz
Bit depth                        : 16 bits
Compression mode                 : Lossy
Stream size                      : 244 MiB (17%)
Alignment                        : Aligned on interleaves
Interleave, duration             : 40 ms (1.00 video frame)
Interleave, preload duration     : 512 ms
 
http://www.imdb.com/title/tt1560978/

Genre:
Horror | Thriller
Director:
Jourdan McClure
Writers:
Ryan Finnerty written by
Kevin Haskin written by
Cast:
Michelle Page … Mara
Art Alexakis … Peter
Chris Coy … Andrew
Michael Cudlitz … Sherrif Boyd
Lucinda Jenney … Lea
Bill Moseley … Jon
Michael Rooker … Gas Attendent

While scattering her father’s ashes at a remote part of Oregon’s beautiful Rouge River, Mara’ (MICHELLE PAGE) car is towed away. Stranded, she accept a ride from Kind passer-by Jon. A quick detour leads them to Jon’s cabin deep in the woods, where his wife Lea quickly captivates Mara and convinces her to spend the night. However, Mara’s world soon becomes a harrowing nightmare as Jon and Lea reveal their true colours and the night unfolds into a shocking and spine-chilling sequences of horrors with a climax that will leave your nerves stripped bare…

Source Used

Rogue River 2012 COMPLETE PAL DVDR-KiK .......Thanks

Enjoy
